<?xml version="1.0" standalone="no"?>
<!DOCTYPE svg PUBLIC "-//W3C//DTD SVG 20010904//EN"
 "http://www.w3.org/TR/2001/REC-SVG-20010904/DTD/svg10.dtd">
<svg version="1.0" xmlns="http://www.w3.org/2000/svg"
 width="342.000000pt" height="257.000000pt" viewBox="0 0 342.000000 257.000000"
 preserveAspectRatio="xMidYMid meet">

<g transform="translate(0.000000,257.000000) scale(0.100000,-0.100000)"
fill="#000000" stroke="none">
<path d="M1543 2305 c-17 -7 -37 -23 -43 -35 -16 -30 -15 -84 2 -108 7 -11
118 -101 246 -201 127 -100 232 -188 232 -195 0 -21 -68 -76 -126 -103 -37
-17 -79 -26 -141 -30 -144 -10 -171 -34 -157 -142 4 -36 8 -104 8 -151 1 -81
-1 -89 -37 -152 -21 -38 -42 -68 -46 -68 -16 0 -69 157 -75 224 -4 43 -1 50
48 113 29 38 61 86 72 108 33 70 76 95 165 95 87 0 219 56 219 93 0 6 -3 8 -6
5 -3 -4 -15 -1 -27 5 -51 27 -92 66 -145 137 -59 79 -129 150 -148 150 -16 0
-42 -59 -55 -124 -9 -44 -8 -68 5 -127 9 -39 16 -85 16 -101 0 -40 -24 -82
-59 -104 -16 -11 -56 -50 -88 -89 -49 -58 -65 -71 -98 -77 -45 -9 -216 0 -228
11 -7 7 47 69 92 104 38 31 101 48 194 54 146 10 182 53 150 177 -21 84 -14
178 19 245 25 52 26 53 7 72 -30 30 -46 23 -74 -37 -45 -94 -49 -163 -19 -328
9 -48 -2 -56 -80 -56 -72 0 -168 -24 -223 -56 -22 -13 -64 -48 -92 -77 -50
-53 -53 -54 -99 -50 -37 4 -53 1 -74 -16 -33 -26 -45 -79 -28 -121 14 -35 534
-447 579 -459 38 -11 92 4 113 31 19 25 25 103 8 113 -17 10 -11 32 19 78 68
99 87 206 62 345 -17 95 -11 102 78 102 116 0 230 45 302 119 31 32 40 36 75
33 58 -5 92 12 110 55 13 30 14 44 5 75 -10 33 -42 61 -259 231 -136 106 -260
202 -277 214 -40 28 -83 34 -122 18z m339 -275 c133 -105 246 -199 250 -209 4
-12 1 -24 -8 -32 -12 -10 -16 -9 -21 9 -3 12 -10 22 -15 22 -6 0 -60 40 -122
88 -61 49 -137 108 -168 133 -32 24 -58 47 -58 51 0 4 -27 28 -60 53 -54 41
-76 75 -50 75 5 0 118 -86 252 -190z m-619 -844 c212 -166 243 -197 220 -220
-4 -3 -16 3 -27 14 -12 12 -79 66 -151 121 -71 55 -152 121 -180 147 -27 26
-68 61 -89 78 -25 19 -36 35 -32 43 5 7 12 9 19 3 7 -5 114 -89 240 -186z"/>
<path d="M398 1093 l-3 -138 -127 -3 -128 -3 0 -99 0 -100 130 0 130 0 0 -135
0 -135 100 0 100 0 0 135 0 135 130 0 130 0 0 100 0 99 -127 3 -128 3 -3 138
-3 137 -99 0 -99 0 -3 -137z"/>
<path d="M1514 671 c-43 -26 -54 -66 -54 -197 l0 -114 50 0 50 0 0 34 c0 21 6
36 15 40 21 8 20 82 -1 94 -21 12 -15 56 9 60 15 3 17 -7 17 -112 l0 -116 50
0 50 0 0 119 c0 65 -5 132 -11 150 -20 58 -112 80 -175 42z"/>
<path d="M2688 568 l-3 -113 -25 0 c-33 0 -36 38 -2 43 19 3 22 9 22 54 0 42
-3 49 -16 44 -9 -3 -25 -6 -36 -6 -11 0 -35 -15 -54 -34 -28 -28 -34 -41 -34
-78 0 -24 7 -54 16 -66 34 -49 109 -66 164 -37 53 28 60 48 60 182 l0 123 -45
0 -44 0 -3 -112z"/>
<path d="M1784 571 c-37 -22 -59 -78 -49 -119 11 -46 54 -82 97 -82 l38 0 0
45 c0 38 -3 45 -20 45 -13 0 -20 7 -20 20 0 15 7 20 25 20 24 0 25 -2 25 -75
0 -65 -3 -76 -21 -86 -12 -6 -30 -9 -40 -6 -17 4 -19 -1 -19 -39 l0 -44 43 0
c51 1 82 17 108 56 15 24 19 47 19 127 0 96 -1 99 -29 128 -24 24 -38 29 -78
29 -30 0 -60 -7 -79 -19z"/>
<path d="M2050 563 c-59 -53 -48 -153 20 -188 36 -18 100 -20 124 -2 16 12 16
14 -4 40 -14 18 -31 27 -50 27 -32 0 -46 25 -35 60 4 14 14 20 33 19 24 -2 24
-2 5 -6 -16 -3 -23 -11 -23 -29 0 -23 3 -24 64 -24 36 0 67 4 70 8 3 5 1 26
-5 46 -21 76 -137 104 -199 49z"/>
<path d="M2319 561 c-28 -28 -29 -34 -29 -115 l0 -86 45 0 45 0 0 70 c0 56 3
70 15 70 12 0 15 -14 15 -70 l0 -70 46 0 46 0 -4 91 c-3 85 -5 92 -31 115 -42
36 -109 34 -148 -5z"/>
<path d="M2854 556 c-29 -29 -34 -41 -34 -80 0 -62 37 -105 98 -113 l42 -6 0
46 c0 40 -3 46 -22 49 -34 5 -31 43 2 43 24 0 25 -3 28 -67 l3 -68 44 0 45 0
0 75 c0 41 -5 86 -12 100 -16 35 -57 55 -114 55 -39 0 -51 -5 -80 -34z"/>
<path d="M1379 556 c-3 -3 -3 -21 -1 -41 3 -26 9 -35 23 -35 14 0 19 7 19 30
0 17 1 33 3 38 2 8 -36 15 -44 8z"/>
<path d="M1070 480 c-41 -41 -12 -120 44 -120 19 0 25 -6 28 -27 2 -22 8 -28
28 -28 25 0 25 1 25 78 0 71 -2 81 -24 98 -30 25 -76 24 -101 -1z m70 -54 c0
-9 -7 -12 -20 -9 -11 3 -20 9 -20 14 0 5 9 9 20 9 11 0 20 -6 20 -14z"/>
<path d="M1220 451 c0 -82 57 -124 105 -77 20 20 25 35 25 76 0 49 -1 50 -29
50 -28 0 -30 -2 -34 -47 l-3 -48 -2 48 c-2 45 -3 47 -32 47 -29 0 -30 -1 -30
-49z"/>
</g>
</svg>
